<svg width="44" height="44" viewBox="0 0 44 44" fill="none" xmlns="http://www.w3.org/2000/svg">
<path d="M15.125 35.75V41.25M6.875 2.75H23.375C24.1043 2.75 24.8038 3.03973 25.3195 3.55546C25.8353 4.07118 26.125 4.77065 26.125 5.5V40.9062C26.125 40.9974 26.0888 41.0849 26.0243 41.1493C25.9599 41.2138 25.8724 41.25 25.7812 41.25H4.125V5.5C4.125 4.77065 4.41473 4.07118 4.93046 3.55546C5.44618 3.03973 6.14565 2.75 6.875 2.75ZM27.5 16.5H37.125C37.8543 16.5 38.5538 16.7897 39.0695 17.3055C39.5853 17.8212 39.875 18.5207 39.875 19.25V41.25H26.125V17.875C26.125 17.5103 26.2699 17.1606 26.5277 16.9027C26.7856 16.6449 27.1353 16.5 27.5 16.5Z" stroke="white" stroke-linecap="round" stroke-linejoin="round"/>
<path d="M8.4288 37.1139C8.14403 37.1511 7.85474 37.0983 7.60154 36.9627C7.34835 36.8272 7.14394 36.6157 7.01703 36.3581C6.89012 36.1005 6.84706 35.8096 6.8939 35.5262C6.94075 35.2429 7.07514 34.9813 7.27822 34.7782C7.4813 34.5751 7.74287 34.4407 8.02622 34.3939C8.30957 34.3471 8.60048 34.3901 8.85811 34.517C9.11574 34.6439 9.32717 34.8483 9.46272 35.1015C9.59826 35.3547 9.65112 35.644 9.61388 35.9288C9.57457 36.2293 9.43708 36.5084 9.22276 36.7228C9.00845 36.9371 8.72933 37.0746 8.4288 37.1139ZM8.4288 30.2389C8.14403 30.2761 7.85474 30.2233 7.60154 30.0877C7.34835 29.9522 7.14394 29.7407 7.01703 29.4831C6.89012 29.2255 6.84706 28.9346 6.8939 28.6512C6.94075 28.3679 7.07514 28.1063 7.27822 27.9032C7.4813 27.7001 7.74287 27.5657 8.02622 27.5189C8.30957 27.4721 8.60048 27.5151 8.85811 27.642C9.11574 27.7689 9.32717 27.9733 9.46272 28.2265C9.59826 28.4797 9.65112 28.769 9.61388 29.0538C9.57457 29.3543 9.43708 29.6334 9.22276 29.8478C9.00845 30.0621 8.72933 30.1996 8.4288 30.2389ZM8.4288 23.3639C8.14403 23.4011 7.85474 23.3483 7.60154 23.2127C7.34835 23.0772 7.14394 22.8657 7.01703 22.6081C6.89012 22.3505 6.84706 22.0596 6.8939 21.7762C6.94075 21.4929 7.07514 21.2313 7.27822 21.0282C7.4813 20.8251 7.74287 20.6907 8.02622 20.6439C8.30957 20.5971 8.60048 20.6401 8.85811 20.767C9.11574 20.8939 9.32717 21.0983 9.46272 21.3515C9.59826 21.6047 9.65112 21.894 9.61388 22.1788C9.57457 22.4793 9.43708 22.7584 9.22276 22.9728C9.00845 23.1871 8.72933 23.3246 8.4288 23.3639ZM8.4288 16.4889C8.14403 16.5261 7.85474 16.4733 7.60154 16.3377C7.34835 16.2022 7.14394 15.9907 7.01703 15.7331C6.89012 15.4755 6.84706 15.1846 6.8939 14.9012C6.94075 14.6179 7.07514 14.3563 7.27822 14.1532C7.4813 13.9501 7.74287 13.8157 8.02622 13.7689C8.30957 13.7221 8.60048 13.7651 8.85811 13.892C9.11574 14.0189 9.32717 14.2233 9.46272 14.4765C9.59826 14.7297 9.65112 15.019 9.61388 15.3038C9.57457 15.6043 9.43708 15.8834 9.22276 16.0978C9.00845 16.3121 8.72933 16.4496 8.4288 16.4889ZM8.4288 9.61388C8.14403 9.65112 7.85474 9.59826 7.60154 9.46272C7.34835 9.32717 7.14394 9.11574 7.01703 8.85811C6.89012 8.60048 6.84706 8.30957 6.8939 8.02622C6.94075 7.74287 7.07514 7.4813 7.27822 7.27822C7.4813 7.07514 7.74287 6.94075 8.02622 6.8939C8.30957 6.84706 8.60048 6.89012 8.85811 7.01703C9.11574 7.14394 9.32717 7.34835 9.46272 7.60154C9.59826 7.85474 9.65112 8.14403 9.61388 8.4288C9.57457 8.72933 9.43708 9.00845 9.22276 9.22276C9.00845 9.43708 8.72933 9.57457 8.4288 9.61388ZM15.3038 30.2389C15.019 30.2761 14.7297 30.2233 14.4765 30.0877C14.2233 29.9522 14.0189 29.7407 13.892 29.4831C13.7651 29.2255 13.7221 28.9346 13.7689 28.6512C13.8157 28.3679 13.9501 28.1063 14.1532 27.9032C14.3563 27.7001 14.6179 27.5657 14.9012 27.5189C15.1846 27.4721 15.4755 27.5151 15.7331 27.642C15.9907 27.7689 16.2022 27.9733 16.3377 28.2265C16.4733 28.4797 16.5261 28.769 16.4889 29.0538C16.4496 29.3543 16.3121 29.6334 16.0978 29.8478C15.8834 30.0621 15.6043 30.1996 15.3038 30.2389ZM15.3038 23.3639C15.019 23.4011 14.7297 23.3483 14.4765 23.2127C14.2233 23.0772 14.0189 22.8657 13.892 22.6081C13.7651 22.3505 13.7221 22.0596 13.7689 21.7762C13.8157 21.4929 13.9501 21.2313 14.1532 21.0282C14.3563 20.8251 14.6179 20.6907 14.9012 20.6439C15.1846 20.5971 15.4755 20.6401 15.7331 20.767C15.9907 20.8939 16.2022 21.0983 16.3377 21.3515C16.4733 21.6047 16.5261 21.894 16.4889 22.1788C16.4496 22.4793 16.3121 22.7584 16.0978 22.9728C15.8834 23.1871 15.6043 23.3246 15.3038 23.3639ZM15.3038 16.4889C15.019 16.5261 14.7297 16.4733 14.4765 16.3377C14.2233 16.2022 14.0189 15.9907 13.892 15.7331C13.7651 15.4755 13.7221 15.1846 13.7689 14.9012C13.8157 14.6179 13.9501 14.3563 14.1532 14.1532C14.3563 13.9501 14.6179 13.8157 14.9012 13.7689C15.1846 13.7221 15.4755 13.7651 15.7331 13.892C15.9907 14.0189 16.2022 14.2233 16.3377 14.4765C16.4733 14.7297 16.5261 15.019 16.4889 15.3038C16.4496 15.6043 16.3121 15.8834 16.0978 16.0978C15.8834 16.3121 15.6043 16.4496 15.3038 16.4889ZM15.3038 9.61388C15.019 9.65112 14.7297 9.59826 14.4765 9.46272C14.2233 9.32717 14.0189 9.11574 13.892 8.85811C13.7651 8.60048 13.7221 8.30957 13.7689 8.02622C13.8157 7.74287 13.9501 7.4813 14.1532 7.27822C14.3563 7.07514 14.6179 6.94075 14.9012 6.8939C15.1846 6.84706 15.4755 6.89012 15.7331 7.01703C15.9907 7.14394 16.2022 7.34835 16.3377 7.60154C16.4733 7.85474 16.5261 8.14403 16.4889 8.4288C16.4496 8.72933 16.3121 9.00845 16.0978 9.22276C15.8834 9.43708 15.6043 9.57457 15.3038 9.61388ZM22.1788 37.1139C21.894 37.1511 21.6047 37.0983 21.3515 36.9627C21.0983 36.8272 20.8939 36.6157 20.767 36.3581C20.6401 36.1005 20.5971 35.8096 20.6439 35.5262C20.6907 35.2429 20.8251 34.9813 21.0282 34.7782C21.2313 34.5751 21.4929 34.4407 21.7762 34.3939C22.0596 34.3471 22.3505 34.3901 22.6081 34.517C22.8657 34.6439 23.0772 34.8483 23.2127 35.1015C23.3483 35.3547 23.4011 35.644 23.3639 35.9288C23.3246 36.2293 23.1871 36.5084 22.9728 36.7228C22.7584 36.9371 22.4793 37.0746 22.1788 37.1139ZM22.1788 30.2389C21.894 30.2761 21.6047 30.2233 21.3515 30.0877C21.0983 29.9522 20.8939 29.7407 20.767 29.4831C20.6401 29.2255 20.5971 28.9346 20.6439 28.6512C20.6907 28.3679 20.8251 28.1063 21.0282 27.9032C21.2313 27.7001 21.4929 27.5657 21.7762 27.5189C22.0596 27.4721 22.3505 27.5151 22.6081 27.642C22.8657 27.7689 23.0772 27.9733 23.2127 28.2265C23.3483 28.4797 23.4011 28.769 23.3639 29.0538C23.3246 29.3543 23.1871 29.6334 22.9728 29.8478C22.7584 30.0621 22.4793 30.1996 22.1788 30.2389ZM22.1788 23.3639C21.894 23.4011 21.6047 23.3483 21.3515 23.2127C21.0983 23.0772 20.8939 22.8657 20.767 22.6081C20.6401 22.3505 20.5971 22.0596 20.6439 21.7762C20.6907 21.4929 20.8251 21.2313 21.0282 21.0282C21.2313 20.8251 21.4929 20.6907 21.7762 20.6439C22.0596 20.5971 22.3505 20.6401 22.6081 20.767C22.8657 20.8939 23.0772 21.0983 23.2127 21.3515C23.3483 21.6047 23.4011 21.894 23.3639 22.1788C23.3246 22.4793 23.1871 22.7584 22.9728 22.9728C22.7584 23.1871 22.4793 23.3246 22.1788 23.3639Z" fill="white"/>
<path d="M22.9741 16.0983C23.5094 15.563 23.5072 14.693 22.9692 14.155C22.4312 13.617 21.5612 13.6149 21.0259 14.1502C20.4906 14.6854 20.4928 15.5555 21.0307 16.0935C21.5687 16.6315 22.4388 16.6336 22.9741 16.0983Z" fill="white"/>
<path d="M22.1788 9.61388C21.894 9.65112 21.6047 9.59826 21.3515 9.46272C21.0983 9.32717 20.8939 9.11574 20.767 8.85811C20.6401 8.60048 20.5971 8.30957 20.6439 8.02622C20.6907 7.74287 20.8251 7.4813 21.0282 7.27822C21.2313 7.07514 21.4929 6.94075 21.7762 6.8939C22.0596 6.84706 22.3505 6.89012 22.6081 7.01703C22.8657 7.14394 23.0772 7.34835 23.2127 7.60154C23.3483 7.85474 23.4011 8.14403 23.3639 8.4288C23.3246 8.72933 23.1871 9.00845 22.9728 9.22276C22.7584 9.43708 22.4793 9.57458 22.1788 9.61388ZM34.3751 34.3751C34.1031 34.3751 33.8373 34.4557 33.6111 34.6068C33.385 34.7579 33.2088 34.9726 33.1047 35.2239C33.0006 35.4751 32.9734 35.7516 33.0265 36.0183C33.0795 36.285 33.2105 36.53 33.4028 36.7223C33.5951 36.9146 33.8401 37.0456 34.1068 37.0986C34.3735 37.1517 34.65 37.1245 34.9012 37.0204C35.1525 36.9163 35.3672 36.7401 35.5183 36.514C35.6694 36.2878 35.7501 36.022 35.7501 35.7501C35.7501 35.3854 35.6052 35.0356 35.3473 34.7778C35.0895 34.5199 34.7397 34.3751 34.3751 34.3751ZM34.3751 27.5001C34.1031 27.5001 33.8373 27.5807 33.6111 27.7318C33.385 27.8829 33.2088 28.0976 33.1047 28.3489C33.0006 28.6001 32.9734 28.8766 33.0265 29.1433C33.0795 29.41 33.2105 29.655 33.4028 29.8473C33.5951 30.0396 33.8401 30.1706 34.1068 30.2236C34.3735 30.2767 34.65 30.2495 34.9012 30.1454C35.1525 30.0413 35.3672 29.8651 35.5183 29.639C35.6694 29.4128 35.7501 29.147 35.7501 28.8751C35.7501 28.5104 35.6052 28.1606 35.3473 27.9028C35.0895 27.6449 34.7397 27.5001 34.3751 27.5001ZM34.3751 20.6251C34.1031 20.6251 33.8373 20.7057 33.6111 20.8568C33.385 21.0079 33.2088 21.2226 33.1047 21.4739C33.0006 21.7251 32.9734 22.0016 33.0265 22.2683C33.0795 22.535 33.2105 22.78 33.4028 22.9723C33.5951 23.1646 33.8401 23.2956 34.1068 23.3486C34.3735 23.4017 34.65 23.3745 34.9012 23.2704C35.1525 23.1663 35.3672 22.9901 35.5183 22.764C35.6694 22.5378 35.7501 22.272 35.7501 22.0001C35.7501 21.6354 35.6052 21.2856 35.3473 21.0278C35.0895 20.7699 34.7397 20.6251 34.3751 20.6251ZM28.8751 34.3751C28.6031 34.3751 28.3373 34.4557 28.1111 34.6068C27.885 34.7579 27.7088 34.9726 27.6047 35.2239C27.5006 35.4751 27.4734 35.7516 27.5265 36.0183C27.5795 36.285 27.7105 36.53 27.9028 36.7223C28.0951 36.9146 28.3401 37.0456 28.6068 37.0986C28.8735 37.1517 29.15 37.1245 29.4012 37.0204C29.6525 36.9163 29.8672 36.7401 30.0183 36.514C30.1694 36.2878 30.2501 36.022 30.2501 35.7501C30.2501 35.3854 30.1052 35.0356 29.8473 34.7778C29.5895 34.5199 29.2397 34.3751 28.8751 34.3751ZM28.8751 27.5001C28.6031 27.5001 28.3373 27.5807 28.1111 27.7318C27.885 27.8829 27.7088 28.0976 27.6047 28.3489C27.5006 28.6001 27.4734 28.8766 27.5265 29.1433C27.5795 29.41 27.7105 29.655 27.9028 29.8473C28.0951 30.0396 28.3401 30.1706 28.6068 30.2236C28.8735 30.2767 29.15 30.2495 29.4012 30.1454C29.6525 30.0413 29.8672 29.8651 30.0183 29.639C30.1694 29.4128 30.2501 29.147 30.2501 28.8751C30.2501 28.5104 30.1052 28.1606 29.8473 27.9028C29.5895 27.6449 29.2397 27.5001 28.8751 27.5001ZM28.8751 20.6251C28.6031 20.6251 28.3373 20.7057 28.1111 20.8568C27.885 21.0079 27.7088 21.2226 27.6047 21.4739C27.5006 21.7251 27.4734 22.0016 27.5265 22.2683C27.5795 22.535 27.7105 22.78 27.9028 22.9723C28.0951 23.1646 28.3401 23.2956 28.6068 23.3486C28.8735 23.4017 29.15 23.3745 29.4012 23.2704C29.6525 23.1663 29.8672 22.9901 30.0183 22.764C30.1694 22.5378 30.2501 22.272 30.2501 22.0001C30.2501 21.6354 30.1052 21.2856 29.8473 21.0278C29.5895 20.7699 29.2397 20.6251 28.8751 20.6251Z" fill="white"/>
</svg>
