<svg width="34" height="34" viewBox="0 0 34 34" fill="none" xmlns="http://www.w3.org/2000/svg">
<path d="M26.2084 12.7503H23.3751M23.3751 12.7503H20.5417M23.3751 12.7503V9.91699M23.3751 12.7503V15.5837" stroke="white" stroke-width="1.5" stroke-linecap="round"/>
<path d="M17 7.8966L16.2237 8.62193C16.3231 8.72831 16.4433 8.81313 16.5769 8.87112C16.7104 8.92911 16.8544 8.95903 17 8.95903C17.1456 8.95903 17.2897 8.92911 17.4232 8.87112C17.5568 8.81313 17.677 8.72831 17.7764 8.62193L17 7.8966ZM3.75704 19.3829C3.82713 19.5064 3.92128 19.6146 4.0339 19.7011C4.14653 19.7877 4.27535 19.8507 4.41276 19.8866C4.55017 19.9224 4.69338 19.9304 4.83391 19.91C4.97445 19.8895 5.10947 19.8412 5.23098 19.7677C5.3525 19.6942 5.45804 19.597 5.54139 19.4821C5.62473 19.3671 5.68418 19.2365 5.71621 19.0982C5.74825 18.9598 5.75223 18.8165 5.72791 18.6766C5.70359 18.5366 5.65147 18.403 5.57462 18.2836L3.75704 19.3829ZM9.26079 22.909C9.16479 22.8038 9.04861 22.7189 8.91915 22.6595C8.78969 22.6 8.64959 22.5672 8.5072 22.563C8.36481 22.5588 8.22302 22.5833 8.09027 22.6349C7.95753 22.6866 7.83653 22.7645 7.73448 22.8639C7.63242 22.9633 7.5514 23.0822 7.49622 23.2135C7.44105 23.3448 7.41285 23.4859 7.4133 23.6284C7.41374 23.7708 7.44284 23.9117 7.49884 24.0427C7.55484 24.1737 7.63661 24.2921 7.73929 24.3908L9.26079 22.909ZM3.89587 13.2006C3.89587 9.08518 5.69221 6.54227 7.91354 5.67102C10.1306 4.8026 13.2317 5.4231 16.2237 8.62193L17.7764 7.17127C14.3934 3.5531 10.4111 2.41127 7.13862 3.69193C3.87037 4.9726 1.77087 8.48877 1.77087 13.2006H3.89587ZM21.9725 28.2768C24.0876 26.5612 26.6206 24.2619 28.6351 21.6935C30.6284 19.152 32.2292 16.1983 32.2292 13.1978H30.1042C30.1042 15.4814 28.8575 17.9634 26.962 20.3817C25.0864 22.7744 22.6894 24.9603 20.6352 26.6263L21.9725 28.2768ZM32.2292 13.1978C32.2292 8.48735 30.1297 4.97118 26.86 3.69193C23.5875 2.40985 19.6067 3.55027 16.2237 7.16985L17.7764 8.62193C20.7684 5.4231 23.8695 4.80118 26.0865 5.6696C28.3079 6.53943 30.1042 9.08377 30.1042 13.1978H32.2292ZM12.0275 28.2782C13.8267 29.7402 15.0762 30.8126 17 30.8126V28.6876C15.9758 28.6876 15.3383 28.2286 13.3649 26.6278L12.0275 28.2782ZM20.6352 26.6263C18.6618 28.2272 18.0243 28.6876 17 28.6876V30.8126C18.9239 30.8126 20.1748 29.7402 21.974 28.2782L20.6352 26.6263ZM5.57604 18.2836C4.51496 16.5326 3.89587 14.8113 3.89587 13.2006H1.77087C1.77087 15.3426 2.58687 17.4506 3.75704 19.3829L5.57604 18.2836ZM13.3649 26.6278C11.9267 25.4679 10.5564 24.2263 9.26079 22.909L7.73929 24.3908C9.09134 25.769 10.5241 27.067 12.0275 28.2782L13.3649 26.6278Z" fill="white"/>
</svg>
