<svg width="67" height="67" viewBox="0 0 67 67" fill="none" xmlns="http://www.w3.org/2000/svg">
<path d="M45.0156 36.6406L56.5312 25.125M30.3594 28.2656L38.7344 36.6406M10.4688 41.875L24.0781 28.2656" stroke="white" stroke-width="4" stroke-linecap="round" stroke-linejoin="round"/>
<path d="M59.6719 25.125C61.4064 25.125 62.8125 23.7189 62.8125 21.9844C62.8125 20.2499 61.4064 18.8438 59.6719 18.8438C57.9374 18.8438 56.5312 20.2499 56.5312 21.9844C56.5312 23.7189 57.9374 25.125 59.6719 25.125Z" stroke="white" stroke-width="4" stroke-linecap="round" stroke-linejoin="round"/>
<path d="M41.875 42.9219C43.6095 42.9219 45.0156 41.5158 45.0156 39.7812C45.0156 38.0467 43.6095 36.6406 41.875 36.6406C40.1405 36.6406 38.7344 38.0467 38.7344 39.7812C38.7344 41.5158 40.1405 42.9219 41.875 42.9219Z" stroke="white" stroke-width="4" stroke-linecap="round" stroke-linejoin="round"/>
<path d="M27.2188 28.2656C28.9533 28.2656 30.3594 26.8595 30.3594 25.125C30.3594 23.3905 28.9533 21.9844 27.2188 21.9844C25.4842 21.9844 24.0781 23.3905 24.0781 25.125C24.0781 26.8595 25.4842 28.2656 27.2188 28.2656Z" stroke="white" stroke-width="4" stroke-linecap="round" stroke-linejoin="round"/>
<path d="M7.32812 48.1562C9.06264 48.1562 10.4688 46.7501 10.4688 45.0156C10.4688 43.2811 9.06264 41.875 7.32812 41.875C5.59361 41.875 4.1875 43.2811 4.1875 45.0156C4.1875 46.7501 5.59361 48.1562 7.32812 48.1562Z" stroke="white" stroke-width="4" stroke-linecap="round" stroke-linejoin="round"/>
</svg>
