<svg width="23" height="30" viewBox="0 0 23 30" fill="none" xmlns="http://www.w3.org/2000/svg">
<path d="M20.9498 28.2228V8.46628C20.9498 6.97179 20.9498 6.2259 20.618 5.59435C20.2873 4.96416 19.6772 4.55038 18.4561 3.72147L16.9021 2.66797C14.9869 1.36675 14.0282 0.716141 13.2901 1.11903C12.5498 1.52192 12.5498 2.69519 12.5498 5.03902V10.5284" stroke="white" stroke-width="2" stroke-linejoin="round"/>
<path d="M22 28.2225H1M20.95 9.16699H18.85M20.95 13.2503H18.85M20.95 17.3336H18.85" stroke="white" stroke-width="2" stroke-linecap="round" stroke-linejoin="round"/>
<path d="M7.2998 15.9727C7.2998 13.4057 7.29981 12.1235 7.91511 11.3259C8.53041 10.5283 9.5195 10.5283 11.4998 10.5283C13.4801 10.5283 14.4692 10.5283 15.0845 11.3259C15.6998 12.1235 15.6998 13.4057 15.6998 15.9727V28.2227H7.2998V15.9727Z" stroke="white" stroke-width="2" stroke-linejoin="round"/>
<path d="M10.9744 15.9731H12.0244M10.9744 20.0565H12.0244" stroke="white" stroke-width="2" stroke-linecap="round"/>
<path d="M2.575 20.0558C3.44485 20.0558 4.15 18.837 4.15 17.3335C4.15 15.8301 3.44485 14.6113 2.575 14.6113C1.70515 14.6113 1 15.8301 1 17.3335C1 18.837 1.70515 20.0558 2.575 20.0558Z" stroke="white" stroke-width="2"/>
<path d="M2.5752 20.0557V28.2223" stroke="white" stroke-width="2" stroke-linecap="round"/>
</svg>
