<svg width="73" height="122" viewBox="0 0 73 122" fill="none" xmlns="http://www.w3.org/2000/svg">
<rect width="33.644" height="33.644" fill="#F25022"/>
<rect x="38.1299" width="33.644" height="33.644" fill="#7FBA00"/>
<rect y="38.1299" width="33.644" height="33.644" fill="#00A4EF"/>
<rect x="38.1299" y="38.1299" width="33.644" height="33.644" fill="#FFB900"/>
<path d="M14.2305 98.7456H11.785V92.1679C11.785 91.4575 11.8157 90.673 11.877 89.8144H11.8157C11.6879 90.489 11.5729 90.9746 11.4707 91.271L8.89481 98.7456H6.87092L4.24905 91.3477C4.1775 91.1483 4.06251 90.6372 3.90407 89.8144H3.83507C3.90152 90.8979 3.93474 91.8485 3.93474 92.6663V98.7456H1.70385V87.7522H5.33L7.57621 94.2685C7.75509 94.7898 7.88542 95.3137 7.96719 95.8401H8.01319C8.15118 95.2319 8.29684 94.7029 8.45017 94.2532L10.6964 87.7522H14.2305V98.7456ZM17.7187 89.6534C17.3098 89.6534 16.9751 89.5333 16.7144 89.2931C16.4538 89.0478 16.3234 88.7488 16.3234 88.3961C16.3234 88.0333 16.4538 87.7368 16.7144 87.5069C16.9751 87.2769 17.3098 87.1619 17.7187 87.1619C18.1327 87.1619 18.4674 87.2769 18.723 87.5069C18.9836 87.7368 19.114 88.0333 19.114 88.3961C19.114 88.7641 18.9836 89.0657 18.723 89.3008C18.4674 89.5359 18.1327 89.6534 17.7187 89.6534ZM18.9146 98.7456H16.4921V90.8953H18.9146V98.7456ZM26.9029 98.462C26.356 98.7788 25.5664 98.9373 24.534 98.9373C23.3278 98.9373 22.3517 98.5718 21.6055 97.841C20.8593 97.1101 20.4862 96.1672 20.4862 95.0121C20.4862 93.6782 20.8849 92.6279 21.6822 91.8613C22.4846 91.0896 23.5553 90.7037 24.8943 90.7037C25.8194 90.7037 26.4889 90.8263 26.9029 91.0717V93.1262C26.3969 92.748 25.8322 92.5589 25.2086 92.5589C24.5136 92.5589 23.9616 92.7634 23.5527 93.1722C23.149 93.576 22.9471 94.1356 22.9471 94.8511C22.9471 95.5462 23.1413 96.0931 23.5297 96.4917C23.9181 96.8853 24.4522 97.082 25.132 97.082C25.7351 97.082 26.3254 96.8929 26.9029 96.5147V98.462ZM33.6185 93.0802C33.3272 92.9218 32.9873 92.8426 32.5989 92.8426C32.0725 92.8426 31.6611 93.0368 31.3647 93.4252C31.0682 93.8085 30.92 94.3324 30.92 94.9968V98.7456H28.4975V90.8953H30.92V92.3519H30.9507C31.334 91.2889 32.024 90.7574 33.0206 90.7574C33.2761 90.7574 33.4754 90.788 33.6185 90.8493V93.0802ZM38.433 98.9373C37.1246 98.9373 36.0947 98.5718 35.3434 97.841C34.5973 97.105 34.2242 96.1084 34.2242 94.8511C34.2242 93.553 34.6126 92.5385 35.3894 91.8076C36.1663 91.0717 37.2166 90.7037 38.5403 90.7037C39.8435 90.7037 40.8657 91.0717 41.6068 91.8076C42.3479 92.5385 42.7184 93.507 42.7184 94.7131C42.7184 96.0164 42.3351 97.0462 41.5685 97.8027C40.8069 98.5591 39.7618 98.9373 38.433 98.9373ZM38.4943 92.5589C37.9219 92.5589 37.4772 92.7557 37.1604 93.1492C36.8435 93.5428 36.685 94.0998 36.685 94.8205C36.685 96.3282 37.2932 97.082 38.5096 97.082C39.6698 97.082 40.2499 96.3077 40.2499 94.7591C40.2499 93.2923 39.6647 92.5589 38.4943 92.5589ZM43.7763 98.5386V96.5761C44.175 96.8163 44.5711 96.9951 44.9646 97.1127C45.3633 97.2302 45.7389 97.289 46.0916 97.289C46.5209 97.289 46.8582 97.2302 47.1035 97.1127C47.3539 96.9951 47.4791 96.8163 47.4791 96.5761C47.4791 96.4227 47.4229 96.295 47.3105 96.1927C47.1981 96.0905 47.0524 96.0011 46.8735 95.9244C46.6997 95.8478 46.5081 95.7788 46.2985 95.7174C46.089 95.6561 45.8871 95.5871 45.6929 95.5104C45.3811 95.3929 45.1052 95.2677 44.865 95.1348C44.6299 94.9968 44.4305 94.8384 44.267 94.6595C44.1085 94.4806 43.9859 94.2736 43.899 94.0385C43.8172 93.8034 43.7763 93.5249 43.7763 93.2029C43.7763 92.7634 43.8709 92.3852 44.06 92.0683C44.2542 91.7514 44.5097 91.4933 44.8266 91.294C45.1486 91.0896 45.514 90.9413 45.9229 90.8493C46.3369 90.7522 46.7662 90.7037 47.2108 90.7037C47.5584 90.7037 47.911 90.7318 48.2688 90.788C48.6265 90.8391 48.9792 90.9158 49.3267 91.018V92.8886C49.0201 92.7097 48.6904 92.5768 48.3378 92.4899C47.9902 92.3979 47.6478 92.3519 47.3105 92.3519C47.1521 92.3519 47.0013 92.3673 46.8582 92.3979C46.7202 92.4235 46.5975 92.4644 46.4902 92.5206C46.3829 92.5717 46.2985 92.6407 46.2372 92.7276C46.1759 92.8094 46.1452 92.9039 46.1452 93.0112C46.1452 93.1543 46.1912 93.277 46.2832 93.3792C46.3752 93.4814 46.4953 93.5709 46.6435 93.6475C46.7917 93.7191 46.9553 93.7855 47.1342 93.8469C47.3182 93.9031 47.4996 93.9619 47.6785 94.0232C48.0005 94.1356 48.2918 94.2583 48.5524 94.3912C48.8131 94.524 49.0354 94.6799 49.2194 94.8588C49.4085 95.0377 49.5516 95.2472 49.6487 95.4874C49.7509 95.7277 49.802 96.0139 49.802 96.3461C49.802 96.8111 49.6998 97.2098 49.4954 97.542C49.2961 97.8691 49.0277 98.1374 48.6904 98.347C48.3582 98.5514 47.9723 98.6996 47.5328 98.7916C47.0984 98.8887 46.6461 98.9373 46.1759 98.9373C45.3121 98.9373 44.5123 98.8044 43.7763 98.5386ZM54.9461 98.9373C53.6377 98.9373 52.6079 98.5718 51.8566 97.841C51.1104 97.105 50.7373 96.1084 50.7373 94.8511C50.7373 93.553 51.1257 92.5385 51.9026 91.8076C52.6794 91.0717 53.7297 90.7037 55.0534 90.7037C56.3567 90.7037 57.3789 91.0717 58.1199 91.8076C58.861 92.5385 59.2315 93.507 59.2315 94.7131C59.2315 96.0164 58.8482 97.0462 58.0816 97.8027C57.3201 98.5591 56.2749 98.9373 54.9461 98.9373ZM55.0074 92.5589C54.435 92.5589 53.9904 92.7557 53.6735 93.1492C53.3566 93.5428 53.1982 94.0998 53.1982 94.8205C53.1982 96.3282 53.8064 97.082 55.0228 97.082C56.1829 97.082 56.763 96.3077 56.763 94.7591C56.763 93.2923 56.1778 92.5589 55.0074 92.5589ZM65.6789 88.9788C65.3671 88.8561 65.0681 88.7948 64.7819 88.7948C64.0051 88.7948 63.6166 89.2164 63.6166 90.0597V90.8953H65.4106V92.6816H63.6166V98.7456H61.2018V92.6816H59.8832V90.8953H61.2018V89.9217C61.2018 89.0273 61.4931 88.3067 62.0757 87.7598C62.6584 87.213 63.4505 86.9395 64.4523 86.9395C64.9429 86.9395 65.3518 86.9907 65.6789 87.0929V88.9788ZM71.6356 98.6536C71.2778 98.8427 70.7386 98.9373 70.018 98.9373C68.311 98.9373 67.4574 98.0505 67.4574 96.2771V92.6816H66.1848V90.8953H67.4574V89.2011L69.8723 88.5111V90.8953H71.6356V92.6816H69.8723V95.8554C69.8723 96.6732 70.1969 97.082 70.8459 97.082C71.1015 97.082 71.3647 97.0079 71.6356 96.8597V98.6536Z" fill="#1F2937"/>
<path d="M11.2994 118.175H6.30542V108.752H11.0892V109.751H7.40936V112.885H10.8132V113.877H7.40936V117.176H11.2994V118.175ZM17.5551 117.866C17.0382 118.177 16.4249 118.333 15.7152 118.333C14.7558 118.333 13.9804 118.021 13.3891 117.399C12.802 116.773 12.5085 115.963 12.5085 114.968C12.5085 113.86 12.8261 112.971 13.4613 112.3C14.0965 111.626 14.9442 111.288 16.0043 111.288C16.5957 111.288 17.117 111.398 17.5683 111.617V112.721C17.0689 112.37 16.5344 112.195 15.9649 112.195C15.2771 112.195 14.712 112.443 14.2696 112.938C13.8315 113.428 13.6125 114.074 13.6125 114.876C13.6125 115.665 13.8184 116.287 14.2302 116.742C14.6463 117.198 15.2027 117.426 15.8992 117.426C16.4862 117.426 17.0382 117.231 17.5551 116.841V117.866ZM21.9972 118.333C21.0028 118.333 20.2077 118.019 19.6119 117.393C19.0205 116.762 18.7248 115.927 18.7248 114.889C18.7248 113.759 19.0336 112.876 19.6513 112.241C20.269 111.606 21.1035 111.288 22.1549 111.288C23.1581 111.288 23.94 111.597 24.5008 112.215C25.0659 112.833 25.3484 113.689 25.3484 114.784C25.3484 115.857 25.044 116.718 24.4351 117.367C23.8305 118.011 23.0179 118.333 21.9972 118.333ZM22.076 112.195C21.3839 112.195 20.8363 112.432 20.4333 112.905C20.0302 113.374 19.8287 114.022 19.8287 114.85C19.8287 115.647 20.0324 116.276 20.4398 116.736C20.8472 117.196 21.3926 117.426 22.076 117.426C22.7726 117.426 23.307 117.2 23.6794 116.749C24.0561 116.298 24.2445 115.656 24.2445 114.824C24.2445 113.982 24.0561 113.334 23.6794 112.879C23.307 112.423 22.7726 112.195 22.076 112.195ZM26.6627 117.932V116.775C27.2497 117.209 27.8958 117.426 28.6011 117.426C29.5474 117.426 30.0205 117.11 30.0205 116.479C30.0205 116.3 29.9789 116.149 29.8956 116.026C29.8168 115.899 29.7073 115.787 29.5671 115.691C29.4313 115.595 29.2692 115.509 29.0808 115.435C28.8968 115.356 28.6975 115.275 28.4828 115.192C28.185 115.073 27.9221 114.955 27.6943 114.837C27.4709 114.714 27.2825 114.578 27.1292 114.429C26.9803 114.276 26.8664 114.103 26.7875 113.91C26.713 113.717 26.6758 113.492 26.6758 113.233C26.6758 112.918 26.7481 112.64 26.8926 112.399C27.0372 112.153 27.23 111.95 27.4709 111.788C27.7118 111.621 27.9856 111.496 28.2923 111.413C28.6033 111.33 28.9231 111.288 29.2517 111.288C29.8343 111.288 30.3556 111.389 30.8156 111.591V112.681C30.3206 112.357 29.7511 112.195 29.1071 112.195C28.9056 112.195 28.7238 112.219 28.5617 112.267C28.3996 112.311 28.2594 112.375 28.1411 112.458C28.0272 112.541 27.9374 112.642 27.8717 112.76C27.8104 112.874 27.7797 113.001 27.7797 113.141C27.7797 113.317 27.8104 113.463 27.8717 113.582C27.9374 113.7 28.0316 113.805 28.1543 113.897C28.2769 113.989 28.4259 114.072 28.6011 114.147C28.7764 114.221 28.9757 114.302 29.1991 114.39C29.497 114.504 29.7642 114.622 30.0008 114.745C30.2373 114.863 30.4388 114.999 30.6053 115.152C30.7718 115.301 30.8988 115.474 30.9864 115.671C31.0784 115.868 31.1244 116.103 31.1244 116.374C31.1244 116.707 31.0499 116.996 30.901 117.242C30.7564 117.487 30.5615 117.691 30.3162 117.853C30.0709 118.015 29.7883 118.135 29.4685 118.214C29.1487 118.293 28.8136 118.333 28.4631 118.333C27.771 118.333 27.1708 118.199 26.6627 117.932ZM38.1423 111.446L35.0474 119.252C34.4954 120.646 33.72 121.342 32.7212 121.342C32.4408 121.342 32.2065 121.314 32.0181 121.257V120.291C32.2503 120.37 32.4627 120.409 32.6555 120.409C33.1987 120.409 33.6061 120.085 33.8777 119.436L34.4165 118.162L31.7881 111.446H32.984L34.8042 116.624C34.8261 116.69 34.8721 116.861 34.9422 117.137H34.9817C35.0036 117.031 35.0474 116.865 35.1131 116.637L37.0253 111.446H38.1423ZM38.898 117.932V116.775C39.485 117.209 40.1312 117.426 40.8365 117.426C41.7827 117.426 42.2558 117.11 42.2558 116.479C42.2558 116.3 42.2142 116.149 42.131 116.026C42.0521 115.899 41.9426 115.787 41.8024 115.691C41.6666 115.595 41.5046 115.509 41.3162 115.435C41.1322 115.356 40.9329 115.275 40.7182 115.192C40.4203 115.073 40.1575 114.955 39.9297 114.837C39.7063 114.714 39.5179 114.578 39.3646 114.429C39.2156 114.276 39.1017 114.103 39.0229 113.91C38.9484 113.717 38.9112 113.492 38.9112 113.233C38.9112 112.918 38.9834 112.64 39.128 112.399C39.2726 112.153 39.4653 111.95 39.7063 111.788C39.9472 111.621 40.221 111.496 40.5276 111.413C40.8387 111.33 41.1585 111.288 41.487 111.288C42.0697 111.288 42.591 111.389 43.0509 111.591V112.681C42.5559 112.357 41.9864 112.195 41.3425 112.195C41.141 112.195 40.9592 112.219 40.7971 112.267C40.635 112.311 40.4948 112.375 40.3765 112.458C40.2626 112.541 40.1728 112.642 40.1071 112.76C40.0458 112.874 40.0151 113.001 40.0151 113.141C40.0151 113.317 40.0458 113.463 40.1071 113.582C40.1728 113.7 40.267 113.805 40.3897 113.897C40.5123 113.989 40.6613 114.072 40.8365 114.147C41.0117 114.221 41.211 114.302 41.4345 114.39C41.7323 114.504 41.9996 114.622 42.2361 114.745C42.4727 114.863 42.6742 114.999 42.8407 115.152C43.0071 115.301 43.1342 115.474 43.2218 115.671C43.3138 115.868 43.3598 116.103 43.3598 116.374C43.3598 116.707 43.2853 116.996 43.1364 117.242C42.9918 117.487 42.7969 117.691 42.5515 117.853C42.3062 118.015 42.0237 118.135 41.7039 118.214C41.3841 118.293 41.049 118.333 40.6985 118.333C40.0063 118.333 39.4062 118.199 38.898 117.932ZM48.1435 118.109C47.8895 118.249 47.5543 118.319 47.1382 118.319C45.9597 118.319 45.3705 117.662 45.3705 116.348V112.366H44.214V111.446H45.3705V109.803L46.4482 109.455V111.446H48.1435V112.366H46.4482V116.157C46.4482 116.609 46.5249 116.931 46.6782 117.123C46.8315 117.316 47.0856 117.413 47.4404 117.413C47.712 117.413 47.9464 117.338 48.1435 117.189V118.109ZM54.9906 115.08H50.2397C50.2572 115.829 50.4588 116.407 50.8443 116.815C51.2298 117.222 51.7598 117.426 52.4345 117.426C53.1923 117.426 53.8889 117.176 54.5241 116.677V117.689C53.9327 118.118 53.1507 118.333 52.1782 118.333C51.2276 118.333 50.4807 118.028 49.9374 117.419C49.3942 116.806 49.1226 115.945 49.1226 114.837C49.1226 113.79 49.4183 112.938 50.0097 112.281C50.6055 111.619 51.3437 111.288 52.2242 111.288C53.1047 111.288 53.7859 111.573 54.2678 112.143C54.7497 112.712 54.9906 113.503 54.9906 114.515V115.08ZM53.8867 114.166C53.8823 113.544 53.7312 113.06 53.4333 112.714C53.1398 112.368 52.7302 112.195 52.2045 112.195C51.6963 112.195 51.2648 112.377 50.91 112.741C50.5551 113.104 50.3361 113.579 50.2529 114.166H53.8867ZM66.1812 118.175H65.1035V114.311C65.1035 113.566 64.9874 113.027 64.7553 112.695C64.5275 112.362 64.142 112.195 63.5987 112.195C63.1388 112.195 62.7467 112.405 62.4225 112.826C62.1027 113.246 61.9428 113.75 61.9428 114.337V118.175H60.8652V114.18C60.8652 112.857 60.3548 112.195 59.3341 112.195C58.861 112.195 58.4711 112.394 58.1645 112.793C57.8578 113.187 57.7045 113.702 57.7045 114.337V118.175H56.6268V111.446H57.7045V112.511H57.7308C58.2083 111.696 58.9048 111.288 59.8204 111.288C60.2803 111.288 60.6812 111.418 61.0229 111.676C61.3646 111.93 61.5989 112.265 61.726 112.681C62.2254 111.753 62.9701 111.288 63.9602 111.288C65.4408 111.288 66.1812 112.202 66.1812 114.028V118.175Z" fill="#4B5563"/>
</svg>
