<svg width="94" height="35" viewBox="0 0 94 35" fill="none" xmlns="http://www.w3.org/2000/svg">
<rect width="15.1714" height="15.1714" fill="#F25022"/>
<rect x="19.5063" width="15.1714" height="15.1714" fill="#7FBA00"/>
<rect y="19.5061" width="15.1714" height="15.1714" fill="#00A4EF"/>
<rect x="19.5063" y="19.5061" width="15.1714" height="15.1714" fill="#FFB900"/>
<path d="M52.8611 16.3347H51.1731V11.7947C51.1731 11.3044 51.1943 10.7629 51.2366 10.1703H51.1943C51.1061 10.6359 51.0267 10.971 50.9562 11.1756L49.1783 16.3347H47.7813L45.9717 11.2285C45.9223 11.091 45.8429 10.7382 45.7336 10.1703H45.686C45.7318 10.9181 45.7547 11.5742 45.7547 12.1387V16.3347H44.215V8.74688H46.7178L48.2681 13.2446C48.3916 13.6044 48.4816 13.9659 48.538 14.3293H48.5698C48.665 13.9095 48.7655 13.5444 48.8714 13.234L50.4217 8.74688H52.8611V16.3347ZM55.2686 10.0591C54.9864 10.0591 54.7554 9.97625 54.5755 9.81045C54.3956 9.64113 54.3056 9.43476 54.3056 9.19136C54.3056 8.9409 54.3956 8.7363 54.5755 8.57756C54.7554 8.41882 54.9864 8.33945 55.2686 8.33945C55.5544 8.33945 55.7854 8.41882 55.9618 8.57756C56.1417 8.7363 56.2317 8.9409 56.2317 9.19136C56.2317 9.44535 56.1417 9.65347 55.9618 9.81574C55.7854 9.97801 55.5544 10.0591 55.2686 10.0591ZM56.0941 16.3347H54.422V10.9163H56.0941V16.3347ZM61.6077 16.1389C61.2303 16.3576 60.6852 16.467 59.9727 16.467C59.1402 16.467 58.4664 16.2148 57.9514 15.7103C57.4363 15.2059 57.1788 14.5551 57.1788 13.7578C57.1788 12.8371 57.454 12.1122 58.0043 11.5831C58.5581 11.0504 59.2971 10.7841 60.2214 10.7841C60.8599 10.7841 61.322 10.8687 61.6077 11.0381V12.4561C61.2585 12.1951 60.8687 12.0646 60.4383 12.0646C59.9586 12.0646 59.5776 12.2057 59.2954 12.4879C59.0167 12.7666 58.8774 13.1528 58.8774 13.6467C58.8774 14.1264 59.0114 14.5039 59.2795 14.7791C59.5476 15.0507 59.9162 15.1865 60.3854 15.1865C60.8017 15.1865 61.2091 15.056 61.6077 14.7949V16.1389ZM66.2429 12.4244C66.0419 12.315 65.8073 12.2604 65.5392 12.2604C65.1759 12.2604 64.8919 12.3944 64.6873 12.6625C64.4827 12.9271 64.3804 13.2886 64.3804 13.7472V16.3347H62.7083V10.9163H64.3804V11.9217H64.4015C64.6661 11.188 65.1423 10.8211 65.8302 10.8211C66.0066 10.8211 66.1442 10.8423 66.2429 10.8846V12.4244ZM69.5659 16.467C68.6629 16.467 67.9521 16.2148 67.4335 15.7103C66.9185 15.2024 66.661 14.5145 66.661 13.6467C66.661 12.7507 66.9291 12.0505 67.4653 11.546C68.0015 11.0381 68.7264 10.7841 69.64 10.7841C70.5395 10.7841 71.2451 11.0381 71.7566 11.546C72.2681 12.0505 72.5238 12.7189 72.5238 13.5515C72.5238 14.451 72.2592 15.1618 71.7301 15.6839C71.2045 16.206 70.4831 16.467 69.5659 16.467ZM69.6083 12.0646C69.2132 12.0646 68.9063 12.2004 68.6876 12.472C68.4689 12.7436 68.3595 13.1281 68.3595 13.6255C68.3595 14.6662 68.7793 15.1865 69.6188 15.1865C70.4196 15.1865 70.82 14.6521 70.82 13.5832C70.82 12.5708 70.4161 12.0646 69.6083 12.0646ZM73.254 16.1918V14.8373C73.5292 15.0031 73.8026 15.1265 74.0742 15.2077C74.3493 15.2888 74.6086 15.3294 74.852 15.3294C75.1483 15.3294 75.3812 15.2888 75.5505 15.2077C75.7233 15.1265 75.8098 15.0031 75.8098 14.8373C75.8098 14.7314 75.771 14.6432 75.6933 14.5727C75.6157 14.5021 75.5152 14.4404 75.3917 14.3875C75.2718 14.3346 75.1395 14.287 74.9949 14.2446C74.8503 14.2023 74.7109 14.1547 74.5769 14.1018C74.3617 14.0206 74.1712 13.9342 74.0054 13.8425C73.8431 13.7472 73.7056 13.6379 73.5927 13.5144C73.4833 13.3909 73.3987 13.2481 73.3387 13.0858C73.2822 12.9235 73.254 12.7313 73.254 12.5091C73.254 12.2057 73.3193 11.9446 73.4498 11.7259C73.5839 11.5072 73.7602 11.3291 73.9789 11.1915C74.2012 11.0504 74.4534 10.9481 74.7356 10.8846C75.0213 10.8176 75.3177 10.7841 75.6246 10.7841C75.8644 10.7841 76.1078 10.8035 76.3548 10.8423C76.6017 10.8775 76.8451 10.9305 77.085 11.001V12.2921C76.8733 12.1686 76.6458 12.0769 76.4024 12.017C76.1625 11.9535 75.9262 11.9217 75.6933 11.9217C75.584 11.9217 75.4799 11.9323 75.3812 11.9535C75.2859 11.9711 75.2012 11.9993 75.1272 12.0381C75.0531 12.0734 74.9949 12.121 74.9526 12.181C74.9102 12.2374 74.8891 12.3027 74.8891 12.3768C74.8891 12.4755 74.9208 12.5602 74.9843 12.6308C75.0478 12.7013 75.1307 12.763 75.233 12.816C75.3353 12.8653 75.4482 12.9112 75.5716 12.9535C75.6986 12.9923 75.8239 13.0329 75.9473 13.0752C76.1696 13.1528 76.3706 13.2375 76.5505 13.3292C76.7305 13.4209 76.8839 13.5285 77.0109 13.652C77.1414 13.7755 77.2402 13.9201 77.3072 14.0859C77.3778 14.2517 77.413 14.4492 77.413 14.6785C77.413 14.9995 77.3425 15.2747 77.2014 15.504C77.0638 15.7297 76.8786 15.9149 76.6458 16.0596C76.4165 16.2007 76.1502 16.303 75.8468 16.3665C75.547 16.4335 75.2348 16.467 74.9102 16.467C74.3141 16.467 73.762 16.3753 73.254 16.1918ZM80.9636 16.467C80.0605 16.467 79.3497 16.2148 78.8311 15.7103C78.3161 15.2024 78.0586 14.5145 78.0586 13.6467C78.0586 12.7507 78.3267 12.0505 78.8629 11.546C79.3991 11.0381 80.124 10.7841 81.0376 10.7841C81.9372 10.7841 82.6427 11.0381 83.1542 11.546C83.6657 12.0505 83.9214 12.7189 83.9214 13.5515C83.9214 14.451 83.6569 15.1618 83.1277 15.6839C82.6021 16.206 81.8807 16.467 80.9636 16.467ZM81.0059 12.0646C80.6108 12.0646 80.3039 12.2004 80.0852 12.472C79.8665 12.7436 79.7571 13.1281 79.7571 13.6255C79.7571 14.6662 80.1769 15.1865 81.0165 15.1865C81.8172 15.1865 82.2176 14.6521 82.2176 13.5832C82.2176 12.5708 81.8137 12.0646 81.0059 12.0646ZM88.3715 9.5935C88.1563 9.50884 87.9499 9.46651 87.7524 9.46651C87.2162 9.46651 86.9481 9.75754 86.9481 10.3396V10.9163H88.1863V12.1492H86.9481V16.3347H85.2813V12.1492H84.3712V10.9163H85.2813V10.2443C85.2813 9.62702 85.4824 9.12963 85.8845 8.75218C86.2867 8.37472 86.8335 8.186 87.5249 8.186C87.8635 8.186 88.1457 8.22127 88.3715 8.29183V9.5935ZM92.4829 16.2712C92.2359 16.4017 91.8638 16.467 91.3664 16.467C90.1882 16.467 89.5991 15.855 89.5991 14.6309V12.1492H88.7207V10.9163H89.5991V9.74695L91.2659 9.27073V10.9163H92.4829V12.1492H91.2659V14.3399C91.2659 14.9043 91.4899 15.1865 91.9379 15.1865C92.1142 15.1865 92.2959 15.1353 92.4829 15.033V16.2712Z" fill="#111827"/>
<path d="M47.6586 28.2839C47.266 28.4913 46.777 28.595 46.1918 28.595C45.4362 28.595 44.8312 28.3518 44.3769 27.8653C43.9225 27.3789 43.6953 26.7405 43.6953 25.9504C43.6953 25.1009 43.9509 24.4145 44.4621 23.891C44.9732 23.3675 45.6214 23.1057 46.4066 23.1057C46.9104 23.1057 47.3277 23.1786 47.6586 23.3243V23.9873C47.2783 23.7749 46.8585 23.6687 46.3992 23.6687C45.7893 23.6687 45.2942 23.8724 44.9139 24.2799C44.5361 24.6873 44.3472 25.2318 44.3472 25.9133C44.3472 26.5603 44.5238 27.0764 44.8769 27.4616C45.2325 27.8443 45.6979 28.0357 46.2733 28.0357C46.8067 28.0357 47.2684 27.9172 47.6586 27.6801V28.2839ZM50.2439 28.595C49.6834 28.595 49.2352 28.4184 48.8994 28.0653C48.5661 27.7098 48.3994 27.2393 48.3994 26.6541C48.3994 26.017 48.5735 25.5195 48.9216 25.1614C49.2698 24.8034 49.7402 24.6244 50.3328 24.6244C50.8983 24.6244 51.3391 24.7984 51.6552 25.1466C51.9737 25.4948 52.133 25.9775 52.133 26.5949C52.133 27.1998 51.9614 27.6851 51.6181 28.0505C51.2774 28.4135 50.8193 28.595 50.2439 28.595ZM50.2884 25.1355C49.8982 25.1355 49.5896 25.2688 49.3624 25.5355C49.1352 25.7997 49.0216 26.1652 49.0216 26.6319C49.0216 27.0813 49.1365 27.4357 49.3661 27.6949C49.5958 27.9542 49.9032 28.0839 50.2884 28.0839C50.681 28.0839 50.9823 27.9567 51.1922 27.7023C51.4045 27.448 51.5107 27.0863 51.5107 26.6171C51.5107 26.143 51.4045 25.7775 51.1922 25.5207C50.9823 25.2639 50.681 25.1355 50.2884 25.1355ZM53.7257 27.9579H53.7109V30.2507H53.1034V24.7132H53.7109V25.38H53.7257C54.0245 24.8762 54.4615 24.6244 55.0369 24.6244C55.5258 24.6244 55.9073 24.7947 56.1814 25.1355C56.4555 25.4738 56.5925 25.9281 56.5925 26.4986C56.5925 27.1332 56.4382 27.6418 56.1295 28.0246C55.8209 28.4049 55.3986 28.595 54.8628 28.595C54.3714 28.595 53.9924 28.3826 53.7257 27.9579ZM53.7109 26.4282V26.9578C53.7109 27.2714 53.8121 27.5381 54.0146 27.7579C54.2195 27.9752 54.4788 28.0839 54.7924 28.0839C55.1603 28.0839 55.448 27.9431 55.6554 27.6616C55.8653 27.3801 55.9703 26.9887 55.9703 26.4874C55.9703 26.0652 55.8727 25.7343 55.6777 25.4948C55.4826 25.2553 55.2184 25.1355 54.885 25.1355C54.5319 25.1355 54.2479 25.259 54.0331 25.5059C53.8183 25.7504 53.7109 26.0578 53.7109 26.4282ZM57.8741 23.7502C57.7655 23.7502 57.6729 23.7132 57.5963 23.6391C57.5198 23.565 57.4815 23.4712 57.4815 23.3576C57.4815 23.244 57.5198 23.1502 57.5963 23.0761C57.6729 22.9995 57.7655 22.9613 57.8741 22.9613C57.9852 22.9613 58.0791 22.9995 58.1556 23.0761C58.2346 23.1502 58.2741 23.244 58.2741 23.3576C58.2741 23.4662 58.2346 23.5588 58.1556 23.6354C58.0791 23.7119 57.9852 23.7502 57.8741 23.7502ZM58.1704 28.5061H57.563V24.7132H58.1704V28.5061ZM60.0076 28.5061H59.4001V22.8909H60.0076V28.5061ZM62.8226 28.595C62.2621 28.595 61.8139 28.4184 61.4781 28.0653C61.1447 27.7098 60.978 27.2393 60.978 26.6541C60.978 26.017 61.1521 25.5195 61.5003 25.1614C61.8485 24.8034 62.3189 24.6244 62.9115 24.6244C63.477 24.6244 63.9177 24.7984 64.2338 25.1466C64.5524 25.4948 64.7116 25.9775 64.7116 26.5949C64.7116 27.1998 64.54 27.6851 64.1968 28.0505C63.856 28.4135 63.398 28.595 62.8226 28.595ZM62.8671 25.1355C62.4769 25.1355 62.1682 25.2688 61.9411 25.5355C61.7139 25.7997 61.6003 26.1652 61.6003 26.6319C61.6003 27.0813 61.7151 27.4357 61.9448 27.6949C62.1744 27.9542 62.4818 28.0839 62.8671 28.0839C63.2597 28.0839 63.5609 27.9567 63.7708 27.7023C63.9832 27.448 64.0894 27.0863 64.0894 26.6171C64.0894 26.143 63.9832 25.7775 63.7708 25.5207C63.5609 25.2639 63.2597 25.1355 62.8671 25.1355ZM67.4414 28.4691C67.2982 28.5481 67.1093 28.5876 66.8747 28.5876C66.2105 28.5876 65.8784 28.2172 65.8784 27.4764V25.2318H65.2265V24.7132H65.8784V23.7873L66.4858 23.5909V24.7132H67.4414V25.2318H66.4858V27.369C66.4858 27.6233 66.529 27.8048 66.6155 27.9135C66.7019 28.0221 66.8451 28.0764 67.0451 28.0764C67.1982 28.0764 67.3303 28.0345 67.4414 27.9505V28.4691ZM71.038 26.4986V28.5061H70.4157V23.1946H71.8751C72.443 23.1946 72.8826 23.3329 73.1937 23.6095C73.5073 23.886 73.6641 24.2762 73.6641 24.7799C73.6641 25.2837 73.49 25.696 73.1418 26.017C72.7961 26.3381 72.3282 26.4986 71.738 26.4986H71.038ZM71.038 23.7576V25.9356H71.6899C72.1196 25.9356 72.4467 25.838 72.6714 25.6429C72.8986 25.4454 73.0122 25.1676 73.0122 24.8095C73.0122 24.1083 72.5974 23.7576 71.7677 23.7576H71.038ZM77.0421 28.5061H76.4347V27.9135H76.4199C76.1556 28.3678 75.7667 28.595 75.2531 28.595C74.8753 28.595 74.579 28.495 74.3642 28.295C74.1518 28.095 74.0456 27.8295 74.0456 27.4986C74.0456 26.7899 74.4629 26.3776 75.2976 26.2615L76.4347 26.1022C76.4347 25.4577 76.1742 25.1355 75.6531 25.1355C75.1963 25.1355 74.7839 25.2911 74.416 25.6022V24.9799C74.7889 24.7429 75.2185 24.6244 75.705 24.6244C76.5964 24.6244 77.0421 25.096 77.0421 26.0393V28.5061ZM76.4347 26.5875L75.5198 26.7134C75.2383 26.7529 75.0259 26.8233 74.8827 26.9245C74.7395 27.0233 74.6679 27.1998 74.6679 27.4542C74.6679 27.6394 74.7333 27.7912 74.8642 27.9098C74.9975 28.0258 75.1741 28.0839 75.3939 28.0839C75.6951 28.0839 75.9433 27.9789 76.1384 27.769C76.3359 27.5567 76.4347 27.2887 76.4347 26.9653V26.5875ZM80.1646 25.3281C80.0584 25.2466 79.9053 25.2059 79.7053 25.2059C79.446 25.2059 79.2287 25.3281 79.0534 25.5726C78.8805 25.817 78.7941 26.1504 78.7941 26.5726V28.5061H78.1866V24.7132H78.7941V25.4948H78.8089C78.8953 25.2281 79.0274 25.0207 79.2052 24.8725C79.383 24.7219 79.5818 24.6466 79.8016 24.6466C79.9596 24.6466 80.0806 24.6639 80.1646 24.6984V25.3281ZM82.5832 28.4691C82.44 28.5481 82.2511 28.5876 82.0165 28.5876C81.3523 28.5876 81.0202 28.2172 81.0202 27.4764V25.2318H80.3683V24.7132H81.0202V23.7873L81.6276 23.5909V24.7132H82.5832V25.2318H81.6276V27.369C81.6276 27.6233 81.6708 27.8048 81.7573 27.9135C81.8437 28.0221 81.9869 28.0764 82.1869 28.0764C82.34 28.0764 82.4721 28.0345 82.5832 27.9505V28.4691ZM86.5428 28.5061H85.9353V26.343C85.9353 25.538 85.6415 25.1355 85.0538 25.1355C84.7501 25.1355 84.4982 25.2503 84.2982 25.48C84.1006 25.7071 84.0019 25.9948 84.0019 26.343V28.5061H83.3944V24.7132H84.0019V25.3429H84.0167C84.3031 24.8639 84.718 24.6244 85.2612 24.6244C85.6761 24.6244 85.9934 24.7589 86.2131 25.0281C86.4329 25.2948 86.5428 25.6812 86.5428 26.1874V28.5061ZM90.7394 26.7615H88.0614C88.0713 27.1838 88.1849 27.5097 88.4022 27.7394C88.6195 27.969 88.9183 28.0839 89.2985 28.0839C89.7257 28.0839 90.1183 27.9431 90.4764 27.6616V28.232C90.143 28.474 89.7023 28.595 89.1541 28.595C88.6182 28.595 88.1972 28.4234 87.891 28.0801C87.5848 27.7344 87.4317 27.2492 87.4317 26.6245C87.4317 26.0343 87.5984 25.554 87.9318 25.1836C88.2676 24.8108 88.6837 24.6244 89.18 24.6244C89.6763 24.6244 90.0603 24.7849 90.3319 25.1059C90.6036 25.4269 90.7394 25.8726 90.7394 26.443V26.7615ZM90.1171 26.2467C90.1146 25.896 90.0294 25.6232 89.8615 25.4281C89.6961 25.233 89.4652 25.1355 89.1689 25.1355C88.8825 25.1355 88.6392 25.238 88.4392 25.4429C88.2392 25.6479 88.1157 25.9158 88.0688 26.2467H90.1171ZM93.6396 25.3281C93.5334 25.2466 93.3803 25.2059 93.1803 25.2059C92.921 25.2059 92.7037 25.3281 92.5284 25.5726C92.3555 25.817 92.2691 26.1504 92.2691 26.5726V28.5061H91.6617V24.7132H92.2691V25.4948H92.2839C92.3704 25.2281 92.5025 25.0207 92.6803 24.8725C92.858 24.7219 93.0568 24.6466 93.2766 24.6466C93.4346 24.6466 93.5556 24.6639 93.6396 24.6984V25.3281Z" fill="#4B5563"/>
</svg>
