<svg width="44" height="44" viewBox="0 0 44 44" fill="none" xmlns="http://www.w3.org/2000/svg">
<path d="M12.5886 17.8475C12.7004 18.92 13.3861 19.8101 14.3642 20.2602C16.3964 21.1942 19.965 22.6875 22 22.6875C24.035 22.6875 27.6036 21.1933 29.6358 20.2602C30.6139 19.811 31.2996 18.9191 31.4114 17.8475C31.5205 16.7961 31.625 15.224 31.625 13.0625C31.625 10.901 31.5205 9.32892 31.4114 8.2775C31.2996 7.205 30.6139 6.31492 29.6349 5.86483C27.6036 4.93075 24.0359 3.4375 22 3.4375C19.965 3.4375 16.3964 4.93167 14.3642 5.86483C13.3861 6.314 12.7004 7.20592 12.5886 8.2775C12.4795 9.32892 12.375 10.901 12.375 13.0625C12.375 15.224 12.4795 16.7961 12.5886 17.8475Z" stroke="white" stroke-width="2" stroke-linejoin="round"/>
<path d="M12.375 7.2876C12.375 7.2876 20.0567 11.1376 22 11.1376C23.9433 11.1376 31.625 7.2876 31.625 7.2876" stroke="white" stroke-width="2" stroke-linejoin="round"/>
<path d="M22 11.1375V22.6875" stroke="white" stroke-width="2" stroke-linecap="round" stroke-linejoin="round"/>
<path d="M2.96358 34.5767C3.07542 35.6492 3.76108 36.5393 4.74008 36.9894C6.77142 37.9235 10.34 39.4167 12.375 39.4167C14.41 39.4167 17.9786 37.9226 20.0108 36.9894C20.9889 36.5402 21.6746 35.6483 21.7864 34.5767C21.8955 33.5253 22 31.9532 22 29.7917C22 27.6302 21.8955 26.0582 21.7864 25.0067C21.6746 23.9342 20.9889 23.0442 20.0108 22.5941C17.9786 21.66 14.41 20.1667 12.375 20.1667C10.34 20.1667 6.77142 21.6609 4.73917 22.5941C3.76108 23.0432 3.07542 23.9352 2.96358 25.0067C2.8545 26.0582 2.75 27.6302 2.75 29.7917C2.75 31.9532 2.8545 33.5253 2.96358 34.5767Z" stroke="white" stroke-width="2" stroke-linejoin="round"/>
<path d="M2.75 24.0166C2.75 24.0166 10.4317 27.8666 12.375 27.8666C14.3183 27.8666 22 24.0166 22 24.0166" stroke="white" stroke-width="2" stroke-linejoin="round"/>
<path d="M12.375 27.8667V39.4167" stroke="white" stroke-width="2" stroke-linecap="round" stroke-linejoin="round"/>
<path d="M22.2136 34.5767C22.3254 35.6492 23.0111 36.5393 23.9892 36.9894C26.0223 37.9235 29.59 39.4167 31.625 39.4167C33.66 39.4167 37.2286 37.9226 39.2608 36.9894C40.2389 36.5402 40.9246 35.6483 41.0364 34.5767C41.1455 33.5253 41.25 31.9532 41.25 29.7917C41.25 27.6302 41.1455 26.0582 41.0364 25.0067C40.9246 23.9342 40.2389 23.0442 39.2599 22.5941C37.2286 21.66 33.6618 20.1667 31.625 20.1667C29.59 20.1667 26.0214 21.6609 23.9892 22.5941C23.0111 23.0432 22.3254 23.9352 22.2136 25.0067C22.1045 26.0582 22 27.6302 22 29.7917C22 31.9532 22.1045 33.5253 22.2136 34.5767Z" stroke="white" stroke-width="2" stroke-linejoin="round"/>
<path d="M22 24.0166C22 24.0166 29.6817 27.8666 31.625 27.8666C33.5683 27.8666 41.25 24.0166 41.25 24.0166" stroke="white" stroke-width="2" stroke-linejoin="round"/>
<path d="M31.625 27.8667V39.4167" stroke="white" stroke-width="2" stroke-linecap="round" stroke-linejoin="round"/>
</svg>
